<?xml version="1.0" encoding="UTF-8"?>
<svg width="128" height="128" viewBox="0 0 256 256" xmlns="http://www.w3.org/2000/svg">
  <!-- Background circle -->
  <circle cx="128" cy="128" r="120" fill="#ffab00" stroke="#ffd740" stroke-width="10"/>

<?Back leaf?>
<g transform="translate (10,45) scale (1.75)">
  <path d="M 59.536,103.916 C 50.592,102.570 39.932,97.061 32.543,89.966 
           C 16.087,74.164 11.811,50.579 21.682,30.055 
           C 31.820,8.977 55.567,-2.594 77.823,2.701 
           C 81.658,3.613 79.097,4.740 67,7.462 
           C 47.869,11.766 38.671,17.318 30.949,29.221 
           C 22.907,41.617 21.700,58.374 27.915,71.348 
           C 31.901,79.670 40.425,88.520 47.696,91.886 
           C 53.253,94.459 56.677,94.177 55.523,91.242 
           C 55.146,90.284 53.940,85.921 52.843,81.548 
           C 51.746,77.175 49.981,72.377 48.920,70.887 
           C 39.243,57.297 39.674,41.989 50.053,30.632 
           C 55.478,24.697 61.709,21.073 76.810,15.068 
           C 89.124,10.172 98.329,5.658 102.706,2.372 
           C 102.706,2.372 105.912,-0.035 105.912,-0.035 
           C 105.912,-0.035 107.347,4.796 107.347,4.796 
           C 108.136,7.453 109.546,15.010 110.482,21.590 
           C 112.059,32.683 112.066,34.231 110.575,42.874 
           C 108.622,54.192 105.054,61.837 98.801,68.098 
           C 91.987,74.921 84.634,78.219 75.173,78.698 
           C 62.892,79.319 61.027,79.798 59.961,82.602 
           C 58.664,86.015 60.894,91.076 64.974,93.981 
           C 72.537,99.366 90.109,93.523 103.043,81.321 
           C 110.538,74.251 111.754,74.642 107.584,82.783 
           C 104.755,88.307 98.355,94.684 91.975,98.336 
           C 83.680,103.084 69.837,105.466 59.536,103.916 
           M 59.579,72.474 
           C 62.030,67.309 68.919,61.742 77.475,58.011 
           C 81.637,56.197 85,54.111 85,53.346 
           C 85,51.930 84.159,51.999 76,54.091 
           C 68.848,55.925 68.514,55.395 73.256,49.750 
           C 81.704,39.694 90,28.106 90,26.363 
           C 90,24.178 86.196,27.691 74.691,40.500 
           C 70.245,45.450 66.270,49.642 65.858,49.815 
           C 65.446,49.988 64.972,47.774 64.805,44.894 
           C 64.503,39.706 62.825,37.410 61.623,40.541 
           C 61.280,41.435 60.494,46.516 59.876,51.833 
           C 59.258,57.150 58.172,62.641 57.462,64.035 
           C 55.771,67.357 54.627,73.587 55.460,74.935 
           C 56.626,76.822 57.867,76.081 59.579,72.474"
        fill="#f57e16"/>
  </g>
  <?Front leaf?>
  <g transform="translate (0,40) scale (1.75)">
  <path d="M 59.536,103.916 C 50.592,102.570 39.932,97.061 32.543,89.966 
           C 16.087,74.164 11.811,50.579 21.682,30.055 
           C 31.820,8.977 55.567,-2.594 77.823,2.701 
           C 81.658,3.613 79.097,4.740 67,7.462 
           C 47.869,11.766 38.671,17.318 30.949,29.221 
           C 22.907,41.617 21.700,58.374 27.915,71.348 
           C 31.901,79.670 40.425,88.520 47.696,91.886 
           C 53.253,94.459 56.677,94.177 55.523,91.242 
           C 55.146,90.284 53.940,85.921 52.843,81.548 
           C 51.746,77.175 49.981,72.377 48.920,70.887 
           C 39.243,57.297 39.674,41.989 50.053,30.632 
           C 55.478,24.697 61.709,21.073 76.810,15.068 
           C 89.124,10.172 98.329,5.658 102.706,2.372 
           C 102.706,2.372 105.912,-0.035 105.912,-0.035 
           C 105.912,-0.035 107.347,4.796 107.347,4.796 
           C 108.136,7.453 109.546,15.010 110.482,21.590 
           C 112.059,32.683 112.066,34.231 110.575,42.874 
           C 108.622,54.192 105.054,61.837 98.801,68.098 
           C 91.987,74.921 84.634,78.219 75.173,78.698 
           C 62.892,79.319 61.027,79.798 59.961,82.602 
           C 58.664,86.015 60.894,91.076 64.974,93.981 
           C 72.537,99.366 90.109,93.523 103.043,81.321 
           C 110.538,74.251 111.754,74.642 107.584,82.783 
           C 104.755,88.307 98.355,94.684 91.975,98.336 
           C 83.680,103.084 69.837,105.466 59.536,103.916 
           M 59.579,72.474 
           C 62.030,67.309 68.919,61.742 77.475,58.011 
           C 81.637,56.197 85,54.111 85,53.346 
           C 85,51.930 84.159,51.999 76,54.091 
           C 68.848,55.925 68.514,55.395 73.256,49.750 
           C 81.704,39.694 90,28.106 90,26.363 
           C 90,24.178 86.196,27.691 74.691,40.500 
           C 70.245,45.450 66.270,49.642 65.858,49.815 
           C 65.446,49.988 64.972,47.774 64.805,44.894 
           C 64.503,39.706 62.825,37.410 61.623,40.541 
           C 61.280,41.435 60.494,46.516 59.876,51.833 
           C 59.258,57.150 58.172,62.641 57.462,64.035 
           C 55.771,67.357 54.627,73.587 55.460,74.935 
           C 56.626,76.822 57.867,76.081 59.579,72.474"
        fill="#ffd740"/>
  </g>
  <?Spark?>
  <g transform="translate (0,0) scale (0.7)">
    <path id="2" d="M 48.121,118.771 C 43.589,92.746 36.420,85.143 11.701,80.147 C 11.701,80.147 2.902,78.369 2.902,78.369 C 2.902,78.369 13.197,76.201 13.197,76.201 C 36.300,71.335 42.844,64.487 47.792,39.997 C 47.792,39.997 49.610,30.998 49.610,30.998 C 49.610,30.998 50.885,38.585 50.885,38.585 C 55.215,64.352 63.478,72.542 89.767,77.120 C 89.767,77.120 96.486,78.290 96.486,78.290 C 96.486,78.290 87.527,80.104 87.527,80.104 C 62.741,85.122 56.118,91.705 51.159,116.249 C 51.159,116.249 49.291,125.493 49.291,125.493 C 49.291,125.493 48.121,118.771 48.121,118.771" stroke="#FFFFFF" fill="#FFFFFF" stroke-width="1"/>
    <path id="2" d="M 97.599,48.895 C 96.843,44.169 94.659,39.477 91.718,36.260 C 89.577,33.918 80.341,30 76.962,28 C 80.341,28 89.577,24.082 91.718,21.740 C 94.663,18.518 96.844,13.829 97.603,9.083 C 98.555,3.128 99.461,3.332 100.809,9.807 C 102.983,20.248 107.467,24.842 117.732,27.139 C 122.915,28.299 124.881,30 121.038,30 C 117.616,30 108.415,33.929 106.122,36.370 C 103.719,38.928 100,47.822 100,51.011 C 100,54.611 98.269,53.085 97.599,48.895" stroke="#FFFFFF" fill="#FFFFFF" stroke-width="1"/>
  </g>
</svg>