<?xml version="1.0" encoding="UTF-8"?>
<svg width="625" height="650" viewBox="0 31 625 625" xmlns="http://www.w3.org/2000/svg">
  <g transform="translate (145,110) scale (.63)">

    <path id="8" d="M 7.009,628.253 C 5.089,628.025 3.183,627.312 2.774,626.669 C 1.671,624.935 1.883,243.178 2.997,225.500 C 4.065,208.545 6.159,199.629 11.640,188.679 C 16.630,178.710 22.591,170.635 30.639,162.939 C 50.061,144.366 70.505,137 102.631,137 C 102.631,137 117,137 117,137 C 117,137 117.005,144.250 117.005,144.250 C 117.008,148.238 117.298,155.837 117.649,161.138 C 117.649,161.138 118.287,170.775 118.287,170.775 C 118.287,170.775 99.893,171.215 99.893,171.215 C 82.829,171.623 80.995,171.852 74.511,174.373 C 64.409,178.301 59.890,181.221 52.536,188.575 C 45.179,195.932 38.708,207.799 36.994,217.077 C 36.342,220.605 36.081,287.480 36.246,408.500 C 36.246,408.500 36.500,594.500 36.500,594.500 C 36.500,594.500 201,594.500 201,594.500 C 201,594.500 365.500,594.500 365.500,594.500 C 365.500,594.500 366.027,400.500 366.027,400.500 C 366.624,181.015 365.731,202.399 375.108,183.128 C 378.027,177.130 379.783,172.383 379.272,171.872 C 378.771,171.371 339.303,171.100 287.954,171.245 C 287.954,171.245 197.519,171.500 197.519,171.500 C 197.519,171.500 195.801,175 195.801,175 C 189.236,188.378 183.182,208.131 179.861,227 C 178.066,237.199 177.647,243.550 177.581,261.500 C 177.521,277.792 177.806,283.500 178.681,283.500 C 179.330,283.500 182.169,280.624 184.990,277.110 C 201.139,256.988 221.283,233 222.032,233 C 222.811,233 235.938,243.715 244.696,251.500 C 244.696,251.500 248.071,254.500 248.071,254.500 C 248.071,254.500 225.286,282.145 225.286,282.145 C 212.754,297.350 193.050,321.303 181.500,335.373 C 169.950,349.443 160.187,360.966 159.806,360.978 C 159.425,360.990 157.738,359.312 156.057,357.250 C 154.376,355.188 143.229,341.575 131.287,327 C 119.345,312.425 101.137,290.193 90.824,277.595 C 80.511,264.997 72.328,254.278 72.638,253.776 C 73.827,251.852 97.230,232.911 98.063,233.198 C 99.066,233.544 117.963,256.058 131.290,272.786 C 136.236,278.993 140.781,283.907 141.391,283.705 C 142.138,283.457 142.714,275.373 143.157,258.919 C 144.295,216.634 150.483,190.297 167.222,156.500 C 185,120.606 208.696,91.676 238.500,69.480 C 271.850,44.643 307.468,29.765 349,23.321 C 364.933,20.849 400.836,20.859 417,23.340 C 508.155,37.331 581.299,98.590 610.001,184.980 C 618.344,210.091 621.978,232.680 621.992,259.506 C 622.012,297.971 614.055,332.101 597.050,366.500 C 573.858,413.413 539.486,448.634 493.438,472.669 C 480.831,479.249 452.157,490.472 445.044,491.609 C 441.480,492.179 441.042,492.011 440.512,489.870 C 440.190,488.567 440.055,481.020 440.213,473.100 C 440.213,473.100 440.500,458.699 440.500,458.699 C 440.500,458.699 447,456.349 447,456.349 C 464.241,450.114 478.034,443.672 490.401,436.076 C 551.034,398.835 588.890,331.785 588.982,261.474 C 589.053,207.129 568.531,156.399 530.610,117.180 C 508.427,94.238 477.213,74.784 446.308,64.640 C 411.268,53.139 367.960,51.751 332.382,60.989 C 297.486,70.050 267.324,86.819 240.837,111.886 C 229.803,122.328 219.547,134.457 220.477,135.962 C 220.914,136.670 258.605,137 338.949,137 C 466.732,137 464.769,136.923 478.949,142.480 C 488.296,146.143 499.261,153.367 506.849,160.860 C 517.808,171.682 524.032,182.245 528.557,197.703 C 528.557,197.703 531.132,206.500 531.132,206.500 C 531.132,206.500 531.617,270.250 531.617,270.250 C 531.617,270.250 532.102,334 532.102,334 C 532.102,334 466.520,334 466.520,334 C 414.946,334 400.847,334.267 400.514,335.250 C 400.281,335.938 399.882,401.901 399.626,481.836 C 399.370,561.771 398.862,627.471 398.497,627.836 C 397.789,628.544 12.903,628.954 7.009,628.253M 497.761,258.740 C 498.046,214.201 497.564,208.762 492.390,198.186 C 488.046,189.306 479.090,180.636 469.196,175.734 C 469.196,175.734 460.651,171.500 460.651,171.500 C 460.651,171.500 449.075,171.513 449.075,171.513 C 438.528,171.525 436.967,171.773 431.500,174.312 C 419.088,180.076 411.465,186.897 406.021,197.112 C 400.500,207.471 400.036,212.134 400.017,257.583 C 400.007,280.179 400.304,298.971 400.676,299.343 C 401.048,299.715 422.985,299.902 449.426,299.759 C 449.426,299.759 497.500,299.500 497.500,299.500 C 497.500,299.500 497.761,258.740 497.761,258.740"
      fill="#3f8f60"/>
    
    <path id="8" d="M 264,545.449 C 264,545.449 264,538.898 264,538.898 C 264,538.898 260.250,537.447 260.250,537.447 C 241.882,530.339 230.817,518.045 226.372,499.808 C 223.867,489.529 223.226,489.907 242.646,490.226 C 242.646,490.226 259.335,490.500 259.335,490.500 C 259.335,490.500 260.757,494.767 260.757,494.767 C 261.654,497.460 263.499,500.042 265.759,501.767 C 268.972,504.219 270.316,504.536 278.855,504.853 C 291.155,505.309 295.192,504.098 299.029,498.801 C 301.883,494.861 302,494.279 302,483.998 C 302,474.546 301.737,472.910 299.750,469.990 C 295.140,463.216 293.562,462.669 276.626,461.975 C 261.580,461.358 261.095,461.267 253.524,457.672 C 239.431,450.979 229.881,438.424 226.391,422 C 224.235,411.855 225.010,394.048 227.995,385.130 C 232.943,370.347 244.145,358.882 258.351,354.063 C 258.351,354.063 263.500,352.316 263.500,352.316 C 263.500,352.316 263.796,345.658 263.796,345.658 C 264.084,339.163 264.158,339 266.796,338.993 C 268.283,338.989 274.675,338.834 281,338.649 C 298.201,338.145 297.851,338.009 298.205,345.332 C 298.465,350.705 298.798,351.578 301,352.647 C 302.375,353.315 306.164,355.129 309.419,356.679 C 323.834,363.543 334.503,378.646 336.315,394.750 C 336.315,394.750 336.906,400 336.906,400 C 336.906,400 319.578,400 319.578,400 C 319.578,400 302.250,400 302.250,400 C 302.250,400 301.653,397.016 301.653,397.016 C 301.325,395.375 299.503,392.337 297.605,390.266 C 297.605,390.266 294.154,386.500 294.154,386.500 C 294.154,386.500 281.157,386.500 281.157,386.500 C 268.674,386.500 268.056,386.599 265.486,389 C 260.879,393.305 260,396.139 260.002,406.700 C 260.004,418.018 261.489,422.116 266.898,425.730 C 269.869,427.715 271.566,428.001 280.398,428.006 C 299.176,428.017 309.686,431.344 319.791,440.477 C 326.473,446.517 330.365,452.167 333.751,460.740 C 336.263,467.101 336.421,468.474 336.420,484 C 336.419,500.350 336.390,500.568 333.208,508 C 327.353,521.675 317.579,531.235 304.144,536.430 C 304.144,536.430 298.500,538.613 298.500,538.613 C 298.500,538.613 298.204,545.306 298.204,545.306 C 298.204,545.306 297.909,552 297.909,552 C 297.909,552 280.954,552 280.954,552 C 280.954,552 264,552 264,552 C 264,552 264,545.449 264,545.449"
      fill="#3f8f60"/>
    
    <path id="8" d="M 72,509.079 C 72,509.079 72,492.159 72,492.159 C 72,492.159 74.750,491.638 74.750,491.638 C 76.262,491.352 103.600,491.204 135.500,491.309 C 135.500,491.309 193.500,491.500 193.500,491.500 C 193.500,491.500 193.774,508.750 193.774,508.750 C 193.774,508.750 194.047,526 194.047,526 C 194.047,526 133.024,526 133.024,526 C 133.024,526 72,526 72,526 C 72,526 72,509.079 72,509.079"
      fill="#3f8f60"/>
    
    <path id="8" d="M 72,452.020 C 72,452.020 72,435.041 72,435.041 C 72,435.041 115.750,434.770 115.750,434.770 C 139.812,434.621 160.512,434.644 161.750,434.820 C 163.982,435.137 164,435.274 164,452.070 C 164,452.070 164,469 164,469 C 164,469 118,469 118,469 C 118,469 72,469 72,469 C 72,469 72,452.020 72,452.020"
      fill="#3f8f60"/>

  </g>
</svg>
