<?xml version="1.0" encoding="utf-8"?>
<svg data-name="Layer 1" xmlns="http://www.w3.org/2000/svg" viewBox="0 0 48 48">
  <path d="M24 46.43A22.43 22.43 0 1 1 46.44 24 22.45 22.45 0 0 1 24 46.43zm0-42.86A20.43 20.43 0 1 0 44.44 24 20.45 20.45 0 0 0 24 3.57z" style="fill:#3f8f60" stroke="#3f8f60" stroke-width="2"/>
  <path d="M24 25c-4.58 0-8.17-2.6-8.17-5.91s3.59-5.91 8.17-5.91c4.19 0 7.68 2.26 8.12 5.26a1 1 0 0 1-.84 1.14 1 1 0 0 1-1.14-.85c-.29-2-3-3.55-6.14-3.55-3.35 0-6.17 1.79-6.17 3.91S20.65 23 24 23a1 1 0 0 1 0 2z" style="fill:#3f8f60" stroke="#3f8f60" stroke-width="3"/>
  <path d="M24 34.82c-4.19 0-7.68-2.26-8.13-5.26a1 1 0 1 1 2-.29c.3 2 3 3.55 6.15 3.55 3.35 0 6.17-1.79 6.17-3.91S27.35 25 24 25a1 1 0 0 1 0-2c4.58 0 8.17 2.6 8.17 5.91s-3.59 5.91-8.17 5.91z" style="fill:#3f8f60" stroke="#3f8f60" stroke-width="3"/>
  <path d="M24 38.65a1 1 0 0 1-1-1v-27.3a1 1 0 0 1 2 0v27.3a1 1 0 0 1-1 1z" style="fill:#3f8f60" stroke="#3f8f60" stroke-width="2"/>
</svg>